<svg xmlns="http://www.w3.org/2000/svg" viewBox="0 -0.5 30 30" shape-rendering="crispEdges">
<path stroke="#000000" d="M15 13h2M8 14h3M14 14h1M17 14h1M7 15h1M11 15h1M14 15h1M18 15h1M7 16h1M12 16h1M14 16h1M18 16h1M7 17h1M13 17h2M19 17h1M7 18h1M20 18h1M8 19h1M8 20h1M3 21h2M6 21h3M2 22h1M5 22h1M2 23h1M2 24h2M3 25h1M2 26h1M1 27h1M1 28h1M1 29h19M24 29h2" />
<path stroke="#ffeeff" d="M15 14h1M15 15h1M8 16h1M17 16h1M8 17h1M18 17h1M8 18h2M12 18h3M19 18h1M9 19h3M10 20h1M10 21h1M10 22h1M10 23h1M10 24h2M10 25h2M6 27h1M11 27h3M5 28h1M8 28h2M13 28h4" />
<path stroke="#ffffff" d="M16 14h1M9 15h2M16 15h2M10 16h2M11 17h2M15 17h3M15 18h4M12 19h8M11 20h9M11 21h8M11 22h8M23 22h2M11 23h7M22 23h4M12 24h6M23 24h2M16 25h2M13 26h5M7 27h2M14 27h4M6 28h2" />
<path stroke="#cceeff" d="M8 15h1M15 16h2M11 18h1M9 20h1M9 21h1M21 21h1M3 22h2M9 22h1M3 23h1M6 23h4M20 23h1M5 24h5M20 24h1M4 25h6M12 25h1M15 25h1M4 26h2M9 26h1M2 27h1M4 27h1M10 27h1M12 28h1M18 28h2M24 28h1" />
<path stroke="#dd5577" d="M9 16h1M10 17h1" />
<path stroke="#ff8888" d="M9 17h1M10 18h1M10 26h1" />
<path stroke="#f6fdff" d="M22 18h5M27 19h2M28 20h1M29 21h1M29 22h1M29 23h1M29 24h1M29 25h1M28 26h1M27 27h2M26 28h1" />
<path stroke="#eeeeff" d="M20 19h1M17 28h1" />
<path stroke="#001122" d="M21 19h1" />
<path stroke="#edfaff" d="M22 19h1M26 19h1M28 21h1M28 25h1M26 27h1" />
<path stroke="#e4f8ff" d="M23 19h3M27 20h1M28 22h1M28 23h1M28 24h1M27 26h1" />
<path stroke="#eeffff" d="M20 20h1M19 21h1M19 22h1M18 23h1M18 24h1M18 25h1M19 27h2" />
<path stroke="#ddeeff" d="M21 20h1" />
<path stroke="#224455" d="M22 20h1M23 27h1" />
<path stroke="#c9f1ff" d="M23 20h3M27 23h1M25 26h1" />
<path stroke="#dbf6ff" d="M26 20h1M27 21h1M27 25h1M26 26h1M25 27h1" />
<path stroke="#ddffff" d="M20 21h1M20 22h1M19 23h1M19 24h1" />
<path stroke="#336688" d="M22 21h1" />
<path stroke="#ddffdd" d="M23 21h3M22 22h1M26 22h1M21 23h1M26 23h1M21 24h1M26 24h1M21 25h5M20 26h2" />
<path stroke="#c0efff" d="M26 21h1M26 25h1" />
<path stroke="#aaccee" d="M6 22h2M5 23h1M4 24h1M8 26h1M3 27h1M9 27h1M2 28h1M10 28h2" />
<path stroke="#7788dd" d="M8 22h1M4 23h1M3 26h1M6 26h2M5 27h1M3 28h2" />
<path stroke="#bbeeff" d="M21 22h1M19 25h1M21 27h1M23 28h1" />
<path stroke="#eeffee" d="M25 22h1M22 24h1M25 24h1" />
<path stroke="#d2f4ff" d="M27 22h1M27 24h1" />
<path stroke="#772200" d="M13 25h1" />
<path stroke="#440011" d="M14 25h1" />
<path stroke="#776666" d="M20 25h1" />
<path stroke="#ff9999" d="M11 26h2" />
<path stroke="#dd99aa" d="M18 26h1" />
<path stroke="#eebbbb" d="M19 26h1" />
<path stroke="#bbaacc" d="M22 26h1" />
<path stroke="#bbbbdd" d="M23 26h1" />
<path stroke="#b6edff" d="M24 26h1" />
<path stroke="#aaccff" d="M18 27h1M20 28h1M22 28h1" />
<path stroke="#77aaee" d="M22 27h1" />
<path stroke="#224444" d="M24 27h1" />
<path stroke="#7799dd" d="M21 28h1" />
<path stroke="#001111" d="M25 28h1M21 29h2" />
<path stroke="#000011" d="M20 29h1M23 29h1" />
</svg>