<svg xmlns="http://www.w3.org/2000/svg" viewBox="0 -0.5 24 24" shape-rendering="crispEdges">
<metadata>Made with Pixels to Svg https://codepen.io/shshaw/pen/XbxvNj</metadata>
<path stroke="#000000" d="M13 3h2M6 4h3M12 4h1M15 4h1M5 5h1M9 5h1M12 5h1M16 5h1M5 6h1M10 6h1M12 6h1M16 6h1M5 7h1M11 7h2M17 7h1M5 8h1M18 8h1M6 9h1M6 10h1M1 11h2M4 11h3M0 12h1M3 12h1M0 13h1M0 14h2M1 15h1M0 16h1M0 19h18M22 19h2" />
<path stroke="#ffeeff" d="M13 4h1M13 5h1M6 6h1M15 6h1M6 7h1M16 7h1M6 8h2M10 8h3M17 8h1M7 9h3M8 10h1M8 11h1M8 12h1M8 13h1M8 14h2M8 15h2M4 17h1M9 17h3M3 18h1M6 18h2M11 18h4" />
<path stroke="#ffffff" d="M14 4h1M7 5h2M14 5h2M8 6h2M9 7h2M13 7h3M13 8h4M10 9h8M9 10h9M9 11h8M9 12h8M21 12h2M9 13h7M20 13h4M10 14h6M21 14h2M14 15h2M11 16h5M5 17h2M12 17h4M4 18h2" />
<path stroke="#cceeff" d="M6 5h1M13 6h2M9 8h1M7 10h1M7 11h1M19 11h1M1 12h2M7 12h1M1 13h1M4 13h4M18 13h1M3 14h5M18 14h1M2 15h6M10 15h1M13 15h1M2 16h2M7 16h1M0 17h1M2 17h1M8 17h1M10 18h1M16 18h2M22 18h1" />
<path stroke="#dd5577" d="M7 6h1M8 7h1" />
<path stroke="#ff8888" d="M7 7h1M8 8h1M8 16h1" />
<path stroke="#f6fdff" d="M20 8h4" />
<path stroke="#eeeeff" d="M18 9h1M15 18h1" />
<path stroke="#001122" d="M19 9h1" />
<path stroke="#edfaff" d="M20 9h1" />
<path stroke="#e4f8ff" d="M21 9h3" />
<path stroke="#eeffff" d="M18 10h1M17 11h1M17 12h1M16 13h1M16 14h1M16 15h1M17 17h2" />
<path stroke="#ddeeff" d="M19 10h1" />
<path stroke="#224455" d="M20 10h1M21 17h1" />
<path stroke="#c9f1ff" d="M21 10h3M23 16h1" />
<path stroke="#ddffff" d="M18 11h1M18 12h1M17 13h1M17 14h1" />
<path stroke="#336688" d="M20 11h1" />
<path stroke="#ddffdd" d="M21 11h3M20 12h1M19 13h1M19 14h1M19 15h5M18 16h2" />
<path stroke="#aaccee" d="M4 12h2M3 13h1M2 14h1M6 16h1M1 17h1M7 17h1M0 18h1M8 18h2" />
<path stroke="#7788dd" d="M6 12h1M2 13h1M1 16h1M4 16h2M3 17h1M1 18h2" />
<path stroke="#bbeeff" d="M19 12h1M17 15h1M19 17h1M21 18h1" />
<path stroke="#eeffee" d="M23 12h1M20 14h1M23 14h1" />
<path stroke="#772200" d="M11 15h1" />
<path stroke="#440011" d="M12 15h1" />
<path stroke="#776666" d="M18 15h1" />
<path stroke="#ff9999" d="M9 16h2" />
<path stroke="#dd99aa" d="M16 16h1" />
<path stroke="#eebbbb" d="M17 16h1" />
<path stroke="#bbaacc" d="M20 16h1" />
<path stroke="#bbbbdd" d="M21 16h1" />
<path stroke="#b6edff" d="M22 16h1" />
<path stroke="#aaccff" d="M16 17h1M18 18h1M20 18h1" />
<path stroke="#77aaee" d="M20 17h1" />
<path stroke="#224444" d="M22 17h1" />
<path stroke="#dbf6ff" d="M23 17h1" />
<path stroke="#7799dd" d="M19 18h1" />
<path stroke="#001111" d="M23 18h1M19 19h2" />
<path stroke="#000011" d="M18 19h1M21 19h1" />
</svg>